<svg xmlns="http://www.w3.org/2000/svg" viewBox="0 0 32 32" width="32" height="32">
  <path d="M16 2C11 2 7 6 7 11c0 2 .7 3.8 1.8 5.3C6.5 17.8 5 20.2 5 23c0 3.5 2.3 6.5 5.5 7.5.7 1.8 2.4 3 4.5 3h6c2.1 0 3.8-1.2 4.5-3C28.7 29.5 31 26.5 31 23c0-2.8-1.5-5.2-3.8-6.7C28.3 14.8 29 13 29 11c0-5-4-9-9-9-2 0-3.8.7-5.2 1.8C13.8 2.7 12 2 10 2H16z" fill="#2563eb"/>
  <circle cx="12" cy="13" r="2" fill="#fff"/>
  <circle cx="20" cy="13" r="2" fill="#fff"/>
  <path d="M12 18h8c0 2.2-1.8 4-4 4s-4-1.8-4-4z" fill="#fff"/>
  <path d="M9 17c1 0 2-.5 2.5-1.2" stroke="#fff" stroke-width="1.5" fill="none" stroke-linecap="round"/>
  <path d="M23 17c-1 0-2-.5-2.5-1.2" stroke="#fff" stroke-width="1.5" fill="none" stroke-linecap="round"/>
</svg>
