<svg data-v-fde0c5aa="" xmlns="http://www.w3.org/2000/svg" viewBox="0 0 300 300" class="iconLeft"><!----><defs data-v-fde0c5aa=""><!----></defs><rect data-v-fde0c5aa="" fill="#D5D7F1" x="0" y="0" width="300px" height="300px" class="logo-background-square"></rect><defs data-v-fde0c5aa=""><!----></defs><g data-v-fde0c5aa="" id="670b4228-8d66-47b9-81e6-f126c8a3890c" fill="#0F104F" transform="matrix(3.015257462850094,0,0,3.015257462850094,94.91465031449036,122.41039248957748)"><path d="M3.05 12.89Q1.93 12.89 1.23 12.50Q0.53 12.11 0.53 11.40L0.53 11.40Q0.53 10.99 0.78 10.74Q1.02 10.49 1.41 10.49L1.41 10.49Q1.64 10.49 1.81 10.61Q1.99 10.74 1.99 10.81L1.99 10.81Q1.99 10.82 1.83 10.99Q1.67 11.16 1.67 11.47L1.67 11.47Q1.67 11.89 2.05 12.13Q2.44 12.38 3.16 12.38L3.16 12.38Q3.82 12.38 4.19 12.09Q4.56 11.80 4.56 11.28L4.56 11.28Q4.56 10.93 4.35 10.71Q4.14 10.49 3.83 10.36Q3.51 10.23 2.95 10.07L2.95 10.07Q2.27 9.87 1.83 9.67Q1.40 9.48 1.09 9.09Q0.78 8.69 0.78 8.06L0.78 8.06Q0.78 7.48 1.15 7.06Q1.51 6.64 2.09 6.43Q2.67 6.22 3.32 6.22L3.32 6.22Q4.14 6.22 4.75 6.57Q5.36 6.92 5.36 7.55L5.36 7.55Q5.36 7.92 5.13 8.19Q4.90 8.46 4.52 8.46L4.52 8.46Q4.30 8.46 4.12 8.33Q3.95 8.20 3.95 8.13L3.95 8.13Q3.95 8.12 4.06 8.02Q4.17 7.92 4.26 7.79Q4.35 7.66 4.35 7.48L4.35 7.48Q4.33 7.10 3.98 6.89Q3.63 6.68 3.15 6.68L3.15 6.68Q2.62 6.68 2.22 6.92Q1.82 7.17 1.82 7.60L1.82 7.60Q1.82 7.99 1.99 8.23Q2.16 8.46 2.49 8.60Q2.83 8.74 3.56 8.97L3.56 8.97Q4.30 9.21 4.72 9.42Q5.14 9.62 5.38 9.96Q5.63 10.30 5.63 10.86L5.63 10.86Q5.63 11.44 5.29 11.91Q4.96 12.38 4.37 12.64Q3.78 12.89 3.05 12.89L3.05 12.89ZM6.75 12.77Q6.64 12.77 6.58 12.68Q6.52 12.60 6.52 12.49L6.52 12.49Q6.54 12.31 6.60 12.27Q6.66 12.24 6.85 12.24L6.85 12.24Q7.21 12.24 7.36 12.11Q7.52 11.98 7.55 11.82Q7.57 11.65 7.57 11.28L7.57 11.28L7.57 4.47Q7.57 4.10 7.55 3.93Q7.53 3.77 7.38 3.64Q7.22 3.51 6.86 3.51L6.86 3.51Q6.69 3.51 6.61 3.46Q6.52 3.42 6.52 3.23L6.52 3.23Q6.52 3.15 6.58 3.07Q6.64 3.00 6.75 2.98L6.75 2.98Q7.63 2.86 8.26 2.62L8.26 2.62Q8.46 2.55 8.58 2.53L8.58 2.53L8.62 2.53Q8.85 2.53 8.85 2.80L8.85 2.80L8.85 9.20Q9.46 9.07 9.86 8.68L9.86 8.68L11.03 7.48Q11.06 7.43 11.20 7.29Q11.34 7.14 11.34 7.04L11.34 7.04Q11.34 6.83 10.70 6.87L10.70 6.87Q10.54 6.85 10.53 6.62L10.53 6.62Q10.53 6.51 10.59 6.43Q10.65 6.34 10.75 6.34L10.75 6.34Q11.38 6.38 12.29 6.38L12.29 6.38Q12.49 6.38 12.91 6.36L12.91 6.36L13.23 6.34Q13.33 6.34 13.39 6.43Q13.45 6.51 13.45 6.62L13.45 6.62Q13.44 6.79 13.38 6.83Q13.33 6.87 13.22 6.87L13.22 6.87Q12.70 6.87 12.36 7.06Q12.03 7.24 11.58 7.70L11.58 7.70L10.40 8.90Q10.77 9.39 11.94 10.70L11.94 10.70Q12.47 11.28 12.49 11.31L12.49 11.31Q12.99 11.84 13.24 12.03Q13.48 12.21 13.85 12.24L13.85 12.24Q13.87 12.24 13.96 12.24Q14.06 12.25 14.11 12.31Q14.15 12.36 14.15 12.49L14.15 12.49Q14.15 12.77 13.93 12.77L13.93 12.77Q13.80 12.77 13.51 12.75Q13.22 12.73 12.07 12.73L12.07 12.73Q11.65 12.29 10.12 10.51L10.12 10.51Q9.65 9.95 9.67 9.98L9.67 9.98Q9.27 9.55 8.85 9.59L8.85 9.59L8.85 11.28Q8.85 11.65 8.87 11.82Q8.89 11.98 9.04 12.11Q9.20 12.24 9.56 12.24L9.56 12.24L9.65 12.24Q9.77 12.24 9.83 12.28Q9.88 12.32 9.90 12.49L9.90 12.49Q9.90 12.60 9.84 12.68Q9.77 12.77 9.67 12.77L9.67 12.77Q8.86 12.73 8.20 12.73L8.20 12.73Q7.57 12.73 6.75 12.77L6.75 12.77ZM14.83 12.77Q14.73 12.77 14.67 12.68Q14.60 12.60 14.60 12.49L14.60 12.49Q14.62 12.31 14.69 12.27Q14.76 12.24 14.94 12.24L14.94 12.24Q15.30 12.24 15.46 12.11Q15.61 11.98 15.63 11.82Q15.65 11.65 15.65 11.28L15.65 11.28L15.65 8.08Q15.65 7.71 15.63 7.55Q15.61 7.38 15.46 7.25Q15.30 7.13 14.94 7.13L14.94 7.13Q14.77 7.13 14.69 7.08Q14.60 7.03 14.60 6.85L14.60 6.85Q14.60 6.76 14.66 6.69Q14.71 6.61 14.83 6.59L14.83 6.59Q15.71 6.47 16.34 6.23L16.34 6.23Q16.53 6.16 16.66 6.15L16.66 6.15L16.70 6.15Q16.93 6.15 16.93 6.41L16.93 6.41L16.93 11.28Q16.93 11.65 16.95 11.82Q16.98 11.98 17.14 12.11Q17.29 12.24 17.65 12.24L17.65 12.24L17.74 12.24Q17.85 12.24 17.91 12.28Q17.96 12.32 17.98 12.49L17.98 12.49Q17.98 12.60 17.92 12.68Q17.86 12.77 17.75 12.77L17.75 12.77Q16.94 12.73 16.28 12.73L16.28 12.73Q15.65 12.73 14.83 12.77L14.83 12.77ZM16.21 4.59Q15.82 4.59 15.55 4.35Q15.29 4.10 15.29 3.74L15.29 3.74Q15.29 3.42 15.61 3.16Q15.93 2.91 16.34 2.91L16.34 2.91Q16.69 2.91 16.91 3.16Q17.14 3.40 17.14 3.78L17.14 3.78Q17.14 4.12 16.87 4.35Q16.60 4.59 16.21 4.59L16.21 4.59ZM18.83 12.77Q18.73 12.77 18.67 12.68Q18.61 12.60 18.61 12.49L18.61 12.49Q18.62 12.31 18.68 12.27Q18.75 12.24 18.93 12.24L18.93 12.24Q19.29 12.24 19.45 12.11Q19.60 11.98 19.63 11.82Q19.66 11.65 19.66 11.28L19.66 11.28L19.66 4.45Q19.66 4.09 19.63 3.92Q19.61 3.75 19.46 3.63Q19.31 3.50 18.94 3.50L18.94 3.50Q18.77 3.50 18.69 3.45Q18.61 3.40 18.61 3.22L18.61 3.22Q18.61 3.14 18.66 3.06Q18.72 2.98 18.83 2.97L18.83 2.97Q19.71 2.84 20.34 2.60L20.34 2.60Q20.54 2.53 20.66 2.52L20.66 2.52L20.71 2.52Q20.93 2.52 20.93 2.79L20.93 2.79L20.93 11.28Q20.93 11.65 20.96 11.82Q20.99 11.98 21.14 12.11Q21.29 12.24 21.66 12.24L21.66 12.24L21.74 12.24Q21.85 12.24 21.91 12.28Q21.97 12.32 21.98 12.49L21.98 12.49Q21.98 12.60 21.92 12.68Q21.87 12.77 21.76 12.77L21.76 12.77Q20.94 12.73 20.29 12.73L20.29 12.73Q19.66 12.73 18.83 12.77L18.83 12.77ZM22.83 12.77Q22.74 12.77 22.67 12.68Q22.61 12.60 22.61 12.49L22.61 12.49Q22.62 12.31 22.69 12.27Q22.75 12.24 22.93 12.24L22.93 12.24Q23.30 12.24 23.45 12.11Q23.60 11.98 23.63 11.82Q23.66 11.65 23.66 11.28L23.66 11.28L23.66 4.45Q23.66 4.09 23.64 3.92Q23.62 3.75 23.46 3.63Q23.31 3.50 22.95 3.50L22.95 3.50Q22.78 3.50 22.69 3.45Q22.61 3.40 22.61 3.22L22.61 3.22Q22.61 3.14 22.67 3.06Q22.72 2.98 22.83 2.97L22.83 2.97Q23.72 2.84 24.35 2.60L24.35 2.60Q24.54 2.53 24.67 2.52L24.67 2.52L24.71 2.52Q24.93 2.52 24.93 2.79L24.93 2.79L24.93 11.28Q24.93 11.65 24.96 11.82Q24.99 11.98 25.14 12.11Q25.30 12.24 25.66 12.24L25.66 12.24L25.75 12.24Q25.86 12.24 25.91 12.28Q25.97 12.32 25.98 12.49L25.98 12.49Q25.98 12.60 25.93 12.68Q25.87 12.77 25.76 12.77L25.76 12.77Q24.95 12.73 24.29 12.73L24.29 12.73Q23.66 12.73 22.83 12.77L22.83 12.77ZM29.34 12.89Q28.22 12.89 27.52 12.50Q26.82 12.11 26.82 11.40L26.82 11.40Q26.82 10.99 27.07 10.74Q27.31 10.49 27.71 10.49L27.71 10.49Q27.93 10.49 28.11 10.61Q28.28 10.74 28.28 10.81L28.28 10.81Q28.28 10.82 28.12 10.99Q27.96 11.16 27.96 11.47L27.96 11.47Q27.96 11.89 28.34 12.13Q28.73 12.38 29.46 12.38L29.46 12.38Q30.11 12.38 30.49 12.09Q30.86 11.80 30.86 11.28L30.86 11.28Q30.86 10.93 30.65 10.71Q30.44 10.49 30.12 10.36Q29.81 10.23 29.25 10.07L29.25 10.07Q28.56 9.87 28.13 9.67Q27.69 9.48 27.38 9.09Q27.08 8.69 27.08 8.06L27.08 8.06Q27.08 7.48 27.44 7.06Q27.80 6.64 28.39 6.43Q28.97 6.22 29.61 6.22L29.61 6.22Q30.44 6.22 31.05 6.57Q31.65 6.92 31.65 7.55L31.65 7.55Q31.65 7.92 31.42 8.19Q31.19 8.46 30.81 8.46L30.81 8.46Q30.59 8.46 30.42 8.33Q30.24 8.20 30.24 8.13L30.24 8.13Q30.24 8.12 30.35 8.02Q30.46 7.92 30.55 7.79Q30.65 7.66 30.65 7.48L30.65 7.48Q30.62 7.10 30.27 6.89Q29.92 6.68 29.44 6.68L29.44 6.68Q28.91 6.68 28.51 6.92Q28.11 7.17 28.11 7.60L28.11 7.60Q28.11 7.99 28.28 8.23Q28.45 8.46 28.78 8.60Q29.12 8.74 29.85 8.97L29.85 8.97Q30.59 9.21 31.01 9.42Q31.43 9.62 31.68 9.96Q31.92 10.30 31.92 10.86L31.92 10.86Q31.92 11.44 31.58 11.91Q31.25 12.38 30.66 12.64Q30.07 12.89 29.34 12.89L29.34 12.89ZM33.84 15.78Q33.24 15.78 32.77 15.39Q32.30 15.01 32.30 14.48L32.30 14.48Q32.30 13.85 32.65 13.67Q33.00 13.50 33.19 13.50L33.19 13.50Q33.43 13.50 33.59 13.59Q33.74 13.69 33.74 13.78L33.74 13.78Q33.74 13.80 33.63 13.92Q33.52 14.03 33.52 14.31L33.52 14.31Q33.52 14.59 33.69 14.80Q33.87 15.01 34.19 15.01L34.19 15.01Q35.07 15.01 35.91 13.20L35.91 13.20Q35.97 13.01 35.97 12.91L35.97 12.91Q35.97 12.77 35.90 12.56L35.90 12.56Q35.62 11.93 34.96 10.22L34.96 10.22Q34.38 8.69 34.02 7.90L34.02 7.90Q33.78 7.35 33.57 7.15Q33.36 6.94 32.96 6.89L32.96 6.89Q32.91 6.87 32.80 6.86Q32.69 6.85 32.66 6.79Q32.63 6.73 32.63 6.59L32.63 6.59Q32.63 6.43 32.73 6.38Q32.82 6.34 32.95 6.34Q33.08 6.33 33.12 6.33L33.12 6.33Q33.98 6.29 34.47 6.57Q34.96 6.86 35.28 7.57L35.28 7.57Q35.59 8.29 35.83 8.93L35.83 8.93Q36.39 10.44 36.74 11.14L36.74 11.14L36.78 11.14L38.15 7.48Q38.22 7.24 38.22 7.14L38.22 7.14Q38.22 6.99 38.08 6.93Q37.94 6.87 37.62 6.87L37.62 6.87L37.53 6.87Q37.42 6.87 37.37 6.83Q37.32 6.79 37.31 6.62L37.31 6.62Q37.31 6.52 37.36 6.43Q37.41 6.34 37.51 6.34L37.51 6.34Q38.30 6.38 38.86 6.38L38.86 6.38Q39.09 6.38 39.73 6.36L39.73 6.36L40.03 6.34Q40.12 6.34 40.18 6.43Q40.24 6.52 40.24 6.62L40.24 6.62Q40.22 6.79 40.17 6.83Q40.11 6.87 40.00 6.87L40.00 6.87Q39.48 6.87 39.20 7.04Q38.92 7.21 38.72 7.70L38.72 7.70Q38.40 8.50 37.69 10.26Q36.97 12.03 36.62 12.87L36.62 12.87Q36.12 14.07 35.45 14.92Q34.78 15.78 33.84 15.78L33.84 15.78ZM40.91 12.77Q40.81 12.77 40.75 12.68Q40.68 12.60 40.68 12.49L40.68 12.49Q40.70 12.31 40.77 12.27Q40.84 12.24 41.02 12.24L41.02 12.24Q41.38 12.24 41.54 12.11Q41.69 11.98 41.71 11.82Q41.73 11.65 41.73 11.28L41.73 11.28L41.73 8.08Q41.73 7.71 41.71 7.55Q41.69 7.38 41.54 7.25Q41.38 7.13 41.02 7.13L41.02 7.13Q40.85 7.13 40.77 7.08Q40.68 7.03 40.68 6.85L40.68 6.85Q40.68 6.76 40.74 6.69Q40.80 6.61 40.91 6.59L40.91 6.59Q41.82 6.45 42.41 6.23L42.41 6.23Q42.64 6.16 42.73 6.15L42.73 6.15L42.77 6.15Q42.99 6.15 42.99 6.41L42.99 6.41L42.99 7.29L43.04 7.29Q43.44 6.92 43.69 6.71Q43.95 6.51 44.34 6.36Q44.74 6.22 45.29 6.22L45.29 6.22Q46.24 6.22 46.80 6.79Q47.36 7.36 47.36 8.30L47.36 8.30L47.36 11.28Q47.36 11.65 47.39 11.82Q47.42 11.98 47.57 12.11Q47.73 12.24 48.09 12.24L48.09 12.24L48.17 12.24Q48.29 12.24 48.34 12.28Q48.40 12.32 48.41 12.49L48.41 12.49Q48.41 12.60 48.35 12.68Q48.29 12.77 48.19 12.77L48.19 12.77Q47.38 12.73 46.72 12.73L46.72 12.73Q46.09 12.73 45.26 12.77L45.26 12.77Q45.16 12.77 45.10 12.68Q45.04 12.60 45.04 12.49L45.04 12.49Q45.05 12.31 45.12 12.27Q45.18 12.24 45.36 12.24L45.36 12.24Q45.72 12.24 45.88 12.11Q46.03 11.98 46.06 11.82Q46.09 11.65 46.09 11.28L46.09 11.28L46.09 8.32Q46.09 7.67 45.68 7.33Q45.28 6.99 44.74 6.99L44.74 6.99Q44.10 6.99 43.64 7.30Q43.18 7.62 43.01 7.95L43.01 7.95L43.01 11.28Q43.01 11.65 43.04 11.82Q43.06 11.98 43.22 12.11Q43.37 12.24 43.74 12.24L43.74 12.24L43.82 12.24Q43.93 12.24 43.99 12.28Q44.04 12.32 44.06 12.49L44.06 12.49Q44.06 12.60 44.00 12.68Q43.95 12.77 43.83 12.77L43.83 12.77Q43.02 12.73 42.36 12.73L42.36 12.73Q41.73 12.73 40.91 12.77L40.91 12.77ZM52.18 12.89Q50.75 12.89 49.94 11.98Q49.13 11.07 49.13 9.55L49.13 9.55Q49.15 8.60 49.60 7.85Q50.04 7.10 50.78 6.67Q51.52 6.24 52.42 6.22L52.42 6.22Q53.31 6.22 53.96 6.55Q54.61 6.89 54.61 7.67L54.61 7.67Q54.61 8.11 54.36 8.44Q54.10 8.76 53.66 8.76L53.66 8.76Q53.40 8.76 53.21 8.62Q53.02 8.48 53.02 8.39L53.02 8.39Q53.02 8.37 53.14 8.26Q53.27 8.15 53.38 7.99Q53.48 7.83 53.48 7.62L53.48 7.62Q53.48 7.18 53.17 6.96Q52.85 6.73 52.40 6.73L52.40 6.73Q51.32 6.73 50.94 7.53Q50.55 8.32 50.55 9.51L50.55 9.51Q50.55 10.68 51.09 11.44Q51.62 12.19 52.50 12.19L52.50 12.19Q53.10 12.19 53.53 11.94Q53.96 11.68 54.31 11.14L54.31 11.14Q54.35 11.07 54.45 11.07L54.45 11.07Q54.52 11.07 54.60 11.12L54.60 11.12Q54.67 11.14 54.71 11.21Q54.75 11.28 54.75 11.35L54.75 11.35Q54.75 11.40 54.71 11.47L54.71 11.47Q54.25 12.12 53.56 12.51Q52.88 12.89 52.18 12.89L52.18 12.89Z"></path></g><defs data-v-fde0c5aa=""><linearGradient data-v-fde0c5aa="" gradientTransform="rotate(25)" id="e739dbef-b7f5-4f9c-bc32-52fe54c104b5" x1="0%" y1="0%" x2="100%" y2="0%"><stop data-v-fde0c5aa="" offset="0%" stop-color="#0D2175" stop-opacity="1"></stop><stop data-v-fde0c5aa="" offset="100%" stop-color="#1F1EFB" stop-opacity="1"></stop></linearGradient></defs><g data-v-fde0c5aa="" id="0afb8886-e4bb-4f0b-849b-8041e8df5008" stroke="none" fill="url(#e739dbef-b7f5-4f9c-bc32-52fe54c104b5)" transform="matrix(0.46854278347386924,0,0,0.46854278347386924,30.160601547048746,120.01326185767238)"><path d="M41.37 126a2 2 0 002 2h11.69a2 2 0 000-4H43.37a2 2 0 00-2 2zM50.06 116h-10a7 7 0 100 4h10a2 2 0 000-4zm-16.69 5a3 3 0 113-3 3 3 0 01-3.01 3zM81.85 95.8c1.33-9.36 7.49-18 13.44-26.28 1.6-2.23 3.1-4.33 4.55-6.5 3.33-5.21 7.16-12.29 7.16-20.9C107 18.89 87.71 0 64 0S21 18.89 21 42.12a40.49 40.49 0 008.14 24.29c1.07 1.44 2.16 2.86 3.25 4.28 5.71 7.45 11.1 14.48 13.2 23.54l.09.37a64.88 64.88 0 011.61 13h-3.92a2 2 0 000 4h13.5a2 2 0 002-2v-16a2 2 0 00-4 0v14h-3.58a69 69 0 00-1.72-14l-.08-.34c-2.29-9.9-8.21-17.61-13.92-25.07-1.07-1.4-2.15-2.81-3.21-4.23A36.51 36.51 0 0125 42.12C25 21.1 42.5 4 64 4s39 17.1 39 38.12c0 7.58-3.49 14-6.5 18.71-1.4 2.08-2.88 4.17-4.5 6.36-6.23 8.71-12.68 17.72-14.15 28l-.06.42c-.23 1.57-.84 5.75-1.16 10.67v.26a2 2 0 000 .21v.19c0 .06 0 .13.06.19s.05.12.08.17l.09.17.11.15.12.15.14.13.15.13.16.1.17.09.18.07.19.06h22.08a7 7 0 100-4H80.82c.32-3.8.77-6.92 1-8.21zm25.15 7.62a3 3 0 11-3 3 3 3 0 013-3z"></path><path d="M37.29 62.46A3.61 3.61 0 0038.36 65L43 69.64a3.72 3.72 0 005.14 0L50 67.79c.3.18.61.33.91.5v-4.66h-.07l-1.37-.92-3.89 3.89-4.09-4.09 3.89-3.89-.92-1.37a23.39 23.39 0 01-3.6-8.69l-.31-1.62H35v-5.83h5.5l.31-1.62a23.39 23.39 0 013.6-8.69l.92-1.37-3.89-3.89 4.09-4.09 3.89 3.89 1.37-.92a23.35 23.35 0 018.69-3.6l1.62-.31V15h5.79v5.5l1.62.31a23.35 23.35 0 018.69 3.6l1.37.92 3.89-3.89 4.09 4.09-3.89 3.89.92 1.37a23.39 23.39 0 013.6 8.69l.31 1.62H93v5.79h-5.5l-.31 1.62a23.39 23.39 0 01-3.6 8.69l-.92 1.37 3.89 3.89-4.09 4.09-3.89-3.89-1.37.92-.1.06v4.66c.31-.17.63-.33.94-.51l1.85 1.85a3.72 3.72 0 005.14 0l4.6-4.64a3.63 3.63 0 000-5.14L87.79 58a27.26 27.26 0 003-7.15h2.62A3.64 3.64 0 0097 47.26v-6.52a3.64 3.64 0 00-3.63-3.63h-2.62a27.26 27.26 0 00-3-7.15l1.85-1.85a3.63 3.63 0 000-5.14L85 18.36a3.72 3.72 0 00-5.14 0L78 20.21a27.24 27.24 0 00-7.15-3v-2.58A3.64 3.64 0 0067.26 11h-6.52a3.64 3.64 0 00-3.63 3.63v2.62a27.24 27.24 0 00-7.15 3l-1.85-1.85a3.72 3.72 0 00-5.14 0L38.36 23a3.63 3.63 0 000 5.14L40.21 30a27.26 27.26 0 00-3 7.15h-2.58A3.64 3.64 0 0031 40.74v6.53a3.64 3.64 0 003.63 3.63h2.62a27.26 27.26 0 003 7.15L38.4 59.9a3.61 3.61 0 00-1.11 2.56z"></path><path d="M56.87 85.62a2 2 0 002-2V62.26a18 18 0 0010.23 0v56.19a2 2 0 002 2h13.19a7 7 0 100-4H73.1V60.54a17.63 17.63 0 00-1.23-31.27 2 2 0 00-2.87 1.8V41.4l-5 3.22-5-3.22V31.07a2 2 0 00-2.87-1.8 17.63 17.63 0 00-1.26 31.25v23.1a2 2 0 002 2zM91 115.45a3 3 0 11-3 3 3 3 0 013-3zM50 45.24a13.56 13.56 0 015-10.55v7.8a2 2 0 00.92 1.68l7 4.51a2 2 0 002.17 0l7-4.51a2 2 0 00.91-1.68v-7.8a13.56 13.56 0 015 10.55 14 14 0 01-28 0z"></path></g><!----></svg>